<?xml version="1.0" encoding="UTF-8"?>
<svg xmlns="http://www.w3.org/2000/svg" xmlns:xlink="http://www.w3.org/1999/xlink" width="200px" height="31px" viewBox="0 0 199 31" version="1.1">
<g id="surface1">
<path style=" stroke:none;fill-rule:nonzero;fill:rgb(100%,100%,100%);fill-opacity:1;" d="M 196.84375 27.410156 C 195.339844 29.0625 193.347656 30.191406 191.15625 30.625 C 189.703125 30.941406 188.210938 31.023438 186.730469 30.863281 C 184.746094 30.675781 182.855469 29.921875 181.28125 28.695312 C 179.984375 27.726562 178.90625 26.492188 178.121094 25.078125 C 177.503906 23.980469 177.078125 22.785156 176.859375 21.542969 C 176.539062 19.800781 176.621094 18.011719 177.097656 16.308594 C 178.058594 12.339844 181.234375 9.296875 185.230469 8.511719 C 187.453125 8.042969 189.75 8.097656 191.945312 8.675781 C 193.53125 9.042969 194.980469 9.847656 196.132812 11 C 196.890625 11.675781 197.507812 12.496094 197.949219 13.410156 C 198.5 14.503906 198.746094 15.726562 198.660156 16.949219 L 191.394531 16.949219 C 191.242188 15.992188 190.734375 15.128906 189.972656 14.535156 C 189.003906 13.722656 187.613281 13.65625 186.574219 14.375 C 185.863281 14.824219 185.332031 15.507812 185.074219 16.3125 C 184.457031 18.242188 184.425781 20.3125 184.996094 22.261719 C 185.207031 23.085938 185.644531 23.835938 186.257812 24.429688 C 186.949219 25.105469 187.90625 25.429688 188.863281 25.3125 C 189.441406 25.230469 189.972656 24.945312 190.367188 24.507812 C 190.785156 24.035156 191.058594 23.449219 191.15625 22.820312 C 191.246094 22.398438 191.300781 21.96875 191.3125 21.535156 L 198.976562 21.535156 C 199.132812 23.703125 198.359375 25.839844 196.851562 27.402344 "/>
<path style=" stroke:none;fill-rule:nonzero;fill:rgb(100%,100%,100%);fill-opacity:1;" d="M 167.617188 0 L 175.515625 0 L 175.515625 5.707031 L 167.617188 5.707031 Z M 167.617188 0 "/>
<path style=" stroke:none;fill-rule:nonzero;fill:rgb(100%,100%,100%);fill-opacity:1;" d="M 167.617188 8.601562 L 175.515625 8.601562 L 175.515625 30.222656 L 167.617188 30.222656 Z M 167.617188 8.601562 "/>
<path style=" stroke:none;fill-rule:nonzero;fill:rgb(100%,100%,100%);fill-opacity:1;" d="M 151.109375 10.929688 C 152.078125 10.019531 153.203125 9.285156 154.425781 8.761719 C 156.367188 7.804688 158.601562 7.632812 160.667969 8.277344 C 162.957031 8.933594 164.746094 10.726562 165.40625 13.023438 C 165.71875 14.09375 165.875 15.199219 165.878906 16.316406 L 165.878906 30.222656 L 157.421875 30.222656 L 157.421875 17.683594 C 157.410156 17.277344 157.355469 16.875 157.265625 16.476562 C 157.066406 15.789062 156.570312 15.226562 155.910156 14.953125 C 154.417969 14.304688 152.679688 14.894531 151.882812 16.316406 C 151.570312 16.882812 151.40625 17.519531 151.410156 18.164062 L 151.410156 30.222656 L 143.273438 30.222656 L 143.273438 8.601562 L 150.9375 8.601562 Z M 151.109375 10.929688 "/>
<path style=" stroke:none;fill-rule:nonzero;fill:rgb(100%,100%,100%);fill-opacity:1;" d="M 57.265625 10.929688 C 58.238281 10.019531 59.359375 9.285156 60.585938 8.761719 C 62.527344 7.804688 64.761719 7.632812 66.824219 8.277344 C 69.113281 8.933594 70.90625 10.726562 71.566406 13.023438 C 71.875 14.09375 72.035156 15.199219 72.039062 16.316406 L 72.039062 30.222656 L 63.664062 30.222656 L 63.664062 17.683594 C 63.652344 17.277344 63.597656 16.875 63.507812 16.476562 C 63.308594 15.789062 62.8125 15.226562 62.152344 14.953125 C 60.660156 14.304688 58.921875 14.894531 58.125 16.316406 C 57.8125 16.882812 57.648438 17.519531 57.652344 18.164062 L 57.652344 30.222656 L 49.449219 30.222656 L 49.449219 8.601562 L 57.109375 8.601562 Z M 57.265625 10.929688 "/>
<path style=" stroke:none;fill-rule:nonzero;fill:rgb(100%,100%,100%);fill-opacity:1;" d="M 107.347656 22.265625 C 107.9375 22.359375 108.515625 22.496094 109.085938 22.667969 C 109.550781 22.84375 109.902344 23.230469 110.035156 23.710938 C 110.15625 24.226562 110.011719 24.769531 109.648438 25.160156 C 109.269531 25.550781 108.769531 25.808594 108.226562 25.882812 C 107.511719 26.039062 106.765625 25.957031 106.101562 25.640625 C 105.785156 25.5 105.492188 25.3125 105.230469 25.078125 C 104.855469 24.8125 104.601562 24.40625 104.519531 23.953125 C 104.429688 23.585938 104.375 23.207031 104.363281 22.828125 L 96.621094 22.828125 L 96.621094 23.308594 C 96.597656 24.027344 96.726562 24.742188 97.007812 25.402344 C 97.386719 26.402344 97.980469 27.308594 98.746094 28.054688 C 99.746094 29.011719 100.96875 29.703125 102.300781 30.0625 C 105.046875 30.851562 107.929688 31.042969 110.753906 30.625 C 112.085938 30.441406 113.375 30.003906 114.542969 29.335938 C 115.074219 29.0625 115.578125 28.738281 116.046875 28.367188 C 118.132812 26.632812 118.945312 23.796875 118.101562 21.214844 C 117.804688 20.257812 117.261719 19.398438 116.519531 18.722656 C 115.503906 17.804688 114.285156 17.140625 112.964844 16.785156 C 112.648438 16.707031 112.410156 16.625 112.09375 16.546875 C 110.519531 16.074219 108.90625 15.726562 107.277344 15.5 C 106.804688 15.421875 106.40625 15.339844 106.011719 15.261719 C 105.824219 15.21875 105.640625 15.164062 105.460938 15.101562 C 105.226562 14.992188 105.046875 14.796875 104.957031 14.554688 C 104.867188 14.316406 104.878906 14.046875 104.988281 13.8125 L 104.988281 13.742188 C 105.191406 13.28125 105.601562 12.953125 106.09375 12.855469 C 106.945312 12.601562 107.859375 12.628906 108.699219 12.9375 C 109.527344 13.210938 110.078125 14 110.050781 14.875 L 117.554688 14.875 C 117.558594 13.996094 117.398438 13.121094 117.082031 12.300781 C 116.800781 11.449219 116.277344 10.695312 115.582031 10.132812 C 114.988281 9.648438 114.320312 9.269531 113.605469 9.003906 C 112.894531 8.707031 112.152344 8.492188 111.394531 8.363281 C 109.648438 8.054688 107.871094 7.949219 106.101562 8.039062 C 105.085938 8.078125 104.078125 8.238281 103.097656 8.523438 C 101.746094 8.828125 100.476562 9.433594 99.386719 10.292969 C 98.460938 11.042969 97.773438 12.046875 97.410156 13.183594 C 97.269531 13.710938 97.160156 14.25 97.09375 14.792969 C 97.011719 15.703125 97.175781 16.621094 97.566406 17.445312 C 98.113281 18.964844 99.296875 20.167969 100.804688 20.738281 C 101.546875 21.050781 102.3125 21.292969 103.097656 21.460938 C 104.28125 21.703125 105.703125 22.023438 107.363281 22.265625 "/>
<path style=" stroke:none;fill-rule:nonzero;fill:rgb(100%,100%,100%);fill-opacity:1;" d="M 14.457031 20.898438 L 9.003906 20.898438 L 9.003906 13.824219 L 12.558594 13.824219 C 13.191406 13.839844 13.824219 13.816406 14.457031 13.746094 C 15.359375 13.699219 16.195312 13.257812 16.746094 12.542969 C 17.042969 12.167969 17.234375 11.726562 17.300781 11.253906 C 17.378906 10.855469 17.378906 10.449219 17.300781 10.050781 C 17.175781 8.484375 15.863281 7.289062 14.296875 7.316406 L 9.003906 7.316406 L 9.003906 30.304688 L 0 30.304688 L 0 0 L 14.773438 0 C 15.328125 -0.015625 15.882812 0.0117188 16.433594 0.078125 C 20.257812 0.257812 23.65625 2.59375 25.207031 6.109375 C 26.066406 7.878906 26.394531 9.863281 26.152344 11.816406 C 25.746094 16.070312 22.652344 19.574219 18.492188 20.496094 C 17.167969 20.789062 15.816406 20.921875 14.464844 20.898438 "/>
<path style=" stroke:none;fill-rule:nonzero;fill:rgb(100%,100%,100%);fill-opacity:1;" d="M 132.785156 8.199219 C 132 8.070312 131.207031 8.015625 130.414062 8.039062 C 129.621094 8.050781 128.828125 8.101562 128.042969 8.199219 C 125.699219 8.527344 123.53125 9.632812 121.878906 11.335938 C 120.03125 13.113281 118.90625 15.519531 118.722656 18.085938 C 118.574219 19.652344 118.707031 21.230469 119.109375 22.75 C 119.6875 25.089844 121.054688 27.160156 122.972656 28.613281 C 124.195312 29.597656 125.628906 30.285156 127.160156 30.625 C 128.25 30.855469 129.363281 30.960938 130.476562 30.945312 C 131.589844 30.957031 132.703125 30.851562 133.792969 30.625 C 135.335938 30.320312 136.777344 29.628906 137.980469 28.613281 L 133.398438 23.550781 C 133.058594 24.320312 132.425781 24.925781 131.640625 25.226562 C 130.855469 25.527344 129.980469 25.503906 129.210938 25.160156 C 128.503906 24.839844 127.941406 24.265625 127.632812 23.550781 C 127.339844 22.882812 127.125 22.179688 127 21.460938 C 126.789062 20.019531 126.816406 18.550781 127.078125 17.121094 C 127.203125 16.363281 127.5 15.648438 127.949219 15.027344 C 128.511719 14.15625 129.480469 13.628906 130.515625 13.628906 C 131.554688 13.628906 132.519531 14.15625 133.082031 15.027344 C 133.5 15.664062 133.792969 16.375 133.953125 17.121094 C 134.253906 18.546875 134.28125 20.019531 134.03125 21.460938 C 133.929688 22.183594 133.71875 22.890625 133.398438 23.550781 L 137.980469 28.613281 C 139.898438 27.160156 141.265625 25.089844 141.84375 22.75 C 142.289062 21.238281 142.421875 19.652344 142.230469 18.085938 C 142.046875 15.519531 140.921875 13.113281 139.070312 11.335938 C 137.34375 9.65625 135.132812 8.558594 132.753906 8.199219 "/>
<path style=" stroke:none;fill-rule:nonzero;fill:rgb(100%,100%,100%);fill-opacity:1;" d="M 95.5 28.535156 C 95.339844 26.765625 95.339844 25.238281 95.261719 23.46875 C 95.183594 21.144531 95.183594 19.128906 95.183594 16.796875 C 95.183594 15.601562 95.027344 14.414062 94.707031 13.261719 C 94.347656 11.714844 93.339844 10.398438 91.945312 9.644531 C 91.140625 9.171875 90.257812 8.84375 89.335938 8.675781 C 86.429688 8.019531 83.417969 7.964844 80.492188 8.515625 C 79.675781 8.671875 78.882812 8.914062 78.121094 9.238281 C 76.296875 9.992188 74.902344 11.523438 74.328125 13.417969 C 74.089844 14.140625 74.007812 14.910156 74.089844 15.667969 C 74.089844 15.828125 74.171875 15.910156 74.171875 16.070312 L 81.28125 16.230469 C 81.289062 15.796875 81.34375 15.367188 81.4375 14.945312 C 81.667969 14.3125 82.160156 13.8125 82.792969 13.578125 C 83.703125 13.230469 84.707031 13.203125 85.636719 13.5 C 86.273438 13.691406 86.757812 14.214844 86.898438 14.863281 C 87.050781 15.242188 86.988281 15.667969 86.742188 15.988281 C 86.535156 16.269531 86.265625 16.492188 85.949219 16.632812 C 85.714844 16.710938 85.5625 16.792969 85.320312 16.875 C 84.292969 17.113281 83.503906 17.355469 82.476562 17.515625 C 81.683594 17.679688 80.972656 17.757812 80.183594 17.917969 C 79.078125 18.160156 78.207031 18.402344 77.179688 18.722656 C 76.257812 18.996094 75.417969 19.492188 74.734375 20.167969 C 73.792969 21.035156 73.179688 22.199219 72.996094 23.464844 C 72.863281 24.292969 72.890625 25.136719 73.074219 25.953125 C 73.511719 28.144531 75.125 29.910156 77.261719 30.535156 C 79.570312 31.238281 82.050781 31.125 84.289062 30.214844 C 85.367188 29.761719 86.3125 29.046875 87.046875 28.136719 L 86.578125 24.433594 C 86.246094 24.976562 85.746094 25.398438 85.15625 25.640625 C 84.628906 25.875 84.070312 26.035156 83.496094 26.121094 C 83.015625 26.191406 82.527344 26.136719 82.074219 25.960938 C 81.675781 25.855469 81.316406 25.632812 81.050781 25.316406 C 80.816406 25.070312 80.652344 24.765625 80.574219 24.433594 C 80.484375 23.902344 80.664062 23.359375 81.050781 22.988281 C 81.320312 22.769531 81.609375 22.582031 81.917969 22.425781 C 82.691406 22.109375 83.484375 21.839844 84.289062 21.621094 C 85.253906 21.320312 86.203125 20.972656 87.132812 20.578125 C 87.210938 21.324219 87.210938 22.078125 87.132812 22.828125 C 87.070312 23.371094 86.878906 23.894531 86.582031 24.355469 L 87.054688 28.050781 C 87.210938 28.613281 87.371094 29.019531 87.527344 29.5 C 87.609375 29.761719 87.738281 30.007812 87.914062 30.222656 L 95.8125 30.222656 C 95.734375 29.660156 95.574219 29.175781 95.496094 28.535156 "/>
<path style=" stroke:none;fill-rule:nonzero;fill:rgb(100%,100%,100%);fill-opacity:1;" d="M 47.867188 28.535156 C 47.710938 26.765625 47.710938 25.238281 47.628906 23.46875 C 47.550781 21.144531 47.550781 19.128906 47.550781 16.796875 C 47.554688 15.601562 47.394531 14.414062 47.078125 13.261719 C 46.714844 11.714844 45.710938 10.398438 44.3125 9.644531 C 43.507812 9.171875 42.625 8.84375 41.707031 8.675781 C 38.800781 8.019531 35.789062 7.964844 32.859375 8.515625 C 32.046875 8.671875 31.25 8.914062 30.488281 9.238281 C 28.664062 9.992188 27.273438 11.523438 26.699219 13.417969 C 26.460938 14.140625 26.378906 14.910156 26.460938 15.667969 C 26.460938 15.828125 26.539062 15.910156 26.539062 16.070312 L 33.648438 16.230469 C 33.660156 15.796875 33.710938 15.367188 33.808594 14.945312 C 34.035156 14.3125 34.53125 13.8125 35.160156 13.578125 C 36.074219 13.230469 37.074219 13.203125 38.003906 13.5 C 38.640625 13.691406 39.125 14.214844 39.269531 14.863281 C 39.417969 15.242188 39.359375 15.667969 39.109375 15.988281 C 38.90625 16.269531 38.632812 16.492188 38.320312 16.632812 C 38.082031 16.710938 37.933594 16.792969 37.6875 16.875 C 36.660156 17.113281 35.871094 17.355469 34.84375 17.515625 C 34.054688 17.679688 33.34375 17.757812 32.554688 17.917969 C 31.449219 18.160156 30.578125 18.402344 29.550781 18.722656 C 28.628906 18.996094 27.789062 19.492188 27.101562 20.167969 C 26.15625 21.019531 25.566406 22.195312 25.441406 23.464844 C 25.3125 24.292969 25.339844 25.136719 25.523438 25.953125 C 25.960938 28.144531 27.574219 29.910156 29.707031 30.535156 C 32.019531 31.238281 34.5 31.125 36.738281 30.214844 C 37.816406 29.761719 38.761719 29.046875 39.496094 28.136719 L 39.019531 24.441406 C 38.6875 24.984375 38.191406 25.40625 37.597656 25.644531 C 37.070312 25.878906 36.511719 26.042969 35.941406 26.128906 C 35.460938 26.199219 34.96875 26.144531 34.519531 25.964844 C 34.117188 25.863281 33.757812 25.636719 33.488281 25.324219 C 33.257812 25.074219 33.09375 24.769531 33.015625 24.441406 C 32.925781 23.910156 33.105469 23.367188 33.488281 22.992188 C 33.761719 22.777344 34.050781 22.589844 34.359375 22.429688 C 35.132812 22.113281 35.925781 21.847656 36.730469 21.625 C 37.695312 21.328125 38.644531 20.976562 39.574219 20.582031 C 39.652344 21.332031 39.652344 22.085938 39.574219 22.832031 C 39.507812 23.378906 39.320312 23.902344 39.019531 24.359375 L 39.496094 28.058594 C 39.652344 28.617188 39.8125 29.027344 39.96875 29.503906 C 40.046875 29.769531 40.179688 30.011719 40.355469 30.226562 L 48.253906 30.226562 C 48.078125 29.675781 47.949219 29.113281 47.867188 28.539062 "/>
<path style=" stroke:none;fill-rule:nonzero;fill:rgb(100%,100%,100%);fill-opacity:1;" d="M 77.253906 30.542969 C 75.117188 29.917969 73.503906 28.152344 73.066406 25.960938 C 72.882812 25.144531 72.855469 24.300781 72.988281 23.472656 C 73.171875 22.207031 73.785156 21.042969 74.726562 20.175781 C 75.410156 19.5 76.25 19.003906 77.171875 18.730469 C 78.199219 18.40625 79.070312 18.164062 80.175781 17.925781 C 80.964844 17.765625 81.675781 17.683594 82.46875 17.523438 C 83.492188 17.363281 84.285156 17.125 85.308594 16.882812 C 85.546875 16.800781 85.695312 16.71875 85.941406 16.640625 C 86.253906 16.5 86.527344 16.277344 86.730469 15.996094 C 86.980469 15.675781 87.039062 15.25 86.890625 14.871094 C 86.746094 14.222656 86.261719 13.699219 85.625 13.507812 C 84.695312 13.210938 83.695312 13.238281 82.78125 13.585938 C 82.152344 13.820312 81.65625 14.320312 81.429688 14.953125 C 81.335938 15.375 81.28125 15.808594 81.273438 16.238281 L 74.171875 16.082031 C 74.171875 15.921875 74.089844 15.839844 74.089844 15.679688 C 74.007812 14.921875 74.089844 14.15625 74.328125 13.429688 C 74.902344 11.539062 76.292969 10.003906 78.121094 9.25 C 78.882812 8.925781 79.675781 8.683594 80.492188 8.523438 C 83.417969 7.976562 86.429688 8.03125 89.335938 8.6875 C 90.257812 8.851562 91.140625 9.179688 91.945312 9.65625 C 93.335938 10.40625 94.34375 11.71875 94.707031 13.261719 C 95.027344 14.414062 95.1875 15.601562 95.183594 16.796875 C 95.183594 19.125 95.183594 21.136719 95.261719 23.46875 C 95.339844 25.238281 95.339844 26.761719 95.5 28.535156 C 95.578125 29.175781 95.734375 29.660156 95.8125 30.222656 L 87.90625 30.222656 C 87.734375 30.007812 87.601562 29.761719 87.519531 29.5 C 87.363281 29.015625 87.207031 28.613281 87.046875 28.050781 L 86.574219 24.355469 C 86.875 23.894531 87.0625 23.371094 87.128906 22.828125 C 87.207031 22.078125 87.207031 21.324219 87.128906 20.578125 C 86.199219 20.976562 85.25 21.324219 84.285156 21.621094 C 83.476562 21.84375 82.6875 22.109375 81.914062 22.425781 C 81.605469 22.585938 81.316406 22.773438 81.046875 22.992188 C 80.660156 23.363281 80.480469 23.90625 80.570312 24.4375 C 80.648438 24.769531 80.8125 25.074219 81.046875 25.320312 C 81.3125 25.636719 81.671875 25.859375 82.070312 25.964844 C 82.523438 26.140625 83.011719 26.195312 83.492188 26.125 C 84.066406 26.039062 84.625 25.878906 85.152344 25.644531 C 85.742188 25.402344 86.242188 24.980469 86.574219 24.4375 L 87.046875 28.132812 C 86.3125 29.050781 85.363281 29.769531 84.28125 30.226562 C 83.003906 30.722656 81.648438 30.984375 80.277344 31 C 79.253906 30.996094 78.234375 30.84375 77.253906 30.542969 Z M 29.703125 30.542969 C 27.566406 29.917969 25.953125 28.152344 25.515625 25.960938 C 25.332031 25.144531 25.304688 24.300781 25.433594 23.472656 C 25.558594 22.203125 26.148438 21.027344 27.09375 20.175781 C 27.78125 19.5 28.621094 19.003906 29.542969 18.730469 C 30.570312 18.40625 31.441406 18.164062 32.546875 17.925781 C 33.335938 17.765625 34.046875 17.683594 34.835938 17.523438 C 35.863281 17.363281 36.652344 17.125 37.679688 16.882812 C 37.917969 16.800781 38.066406 16.71875 38.3125 16.640625 C 38.625 16.5 38.898438 16.277344 39.101562 15.996094 C 39.351562 15.675781 39.410156 15.25 39.261719 14.871094 C 39.117188 14.222656 38.632812 13.699219 37.996094 13.507812 C 37.066406 13.210938 36.066406 13.238281 35.152344 13.585938 C 34.527344 13.820312 34.035156 14.320312 33.8125 14.953125 C 33.714844 15.375 33.660156 15.808594 33.652344 16.238281 L 26.539062 16.082031 C 26.539062 15.921875 26.460938 15.839844 26.460938 15.679688 C 26.378906 14.921875 26.460938 14.15625 26.699219 13.429688 C 27.273438 11.539062 28.664062 10.003906 30.488281 9.25 C 31.25 8.925781 32.046875 8.683594 32.859375 8.523438 C 35.789062 7.976562 38.800781 8.03125 41.707031 8.6875 C 42.625 8.851562 43.507812 9.179688 44.316406 9.65625 C 45.710938 10.40625 46.71875 11.726562 47.078125 13.273438 C 47.398438 14.421875 47.554688 15.613281 47.554688 16.808594 C 47.554688 19.132812 47.554688 21.148438 47.628906 23.480469 C 47.710938 25.246094 47.710938 26.773438 47.867188 28.542969 C 47.949219 29.117188 48.078125 29.679688 48.253906 30.230469 L 40.363281 30.230469 C 40.1875 30.019531 40.058594 29.773438 39.976562 29.507812 C 39.820312 29.027344 39.660156 28.625 39.503906 28.0625 L 39.027344 24.355469 C 39.328125 23.894531 39.515625 23.371094 39.578125 22.828125 C 39.660156 22.078125 39.660156 21.324219 39.578125 20.578125 C 38.648438 20.976562 37.699219 21.324219 36.734375 21.621094 C 35.929688 21.84375 35.140625 22.109375 34.367188 22.425781 C 34.058594 22.585938 33.769531 22.773438 33.496094 22.992188 C 33.113281 23.363281 32.933594 23.90625 33.023438 24.4375 C 33.101562 24.769531 33.265625 25.074219 33.496094 25.320312 C 33.765625 25.636719 34.125 25.859375 34.527344 25.964844 C 34.976562 26.140625 35.46875 26.195312 35.949219 26.125 C 36.519531 26.039062 37.078125 25.878906 37.605469 25.644531 C 38.199219 25.402344 38.695312 24.980469 39.027344 24.4375 L 39.503906 28.132812 C 38.765625 29.050781 37.8125 29.769531 36.730469 30.226562 C 35.453125 30.722656 34.097656 30.984375 32.726562 31 C 31.699219 30.996094 30.679688 30.84375 29.699219 30.542969 Z M 186.734375 30.867188 C 184.75 30.675781 182.859375 29.925781 181.285156 28.695312 C 179.988281 27.730469 178.910156 26.496094 178.125 25.078125 C 177.503906 23.980469 177.078125 22.785156 176.859375 21.542969 C 176.542969 19.800781 176.621094 18.011719 177.097656 16.308594 C 178.0625 12.347656 181.238281 9.308594 185.230469 8.523438 C 187.453125 8.054688 189.75 8.109375 191.945312 8.6875 C 193.53125 9.054688 194.980469 9.859375 196.132812 11.011719 C 196.890625 11.6875 197.507812 12.507812 197.949219 13.421875 C 198.5 14.515625 198.746094 15.738281 198.660156 16.957031 L 191.394531 16.957031 C 191.242188 16.003906 190.734375 15.140625 189.972656 14.546875 C 189.003906 13.738281 187.613281 13.671875 186.574219 14.386719 C 185.863281 14.835938 185.332031 15.523438 185.074219 16.324219 C 184.457031 18.253906 184.429688 20.328125 184.996094 22.273438 C 185.210938 23.101562 185.648438 23.851562 186.261719 24.445312 C 186.949219 25.121094 187.910156 25.445312 188.867188 25.328125 C 189.445312 25.242188 189.976562 24.957031 190.367188 24.523438 C 190.785156 24.046875 191.058594 23.460938 191.15625 22.835938 C 191.25 22.414062 191.300781 21.980469 191.316406 21.550781 L 198.980469 21.550781 C 199.132812 23.71875 198.359375 25.851562 196.851562 27.414062 C 195.347656 29.070312 193.355469 30.199219 191.164062 30.632812 C 190.191406 30.839844 189.199219 30.949219 188.203125 30.953125 C 187.710938 30.953125 187.21875 30.921875 186.730469 30.867188 Z M 127.175781 30.625 C 125.644531 30.285156 124.210938 29.597656 122.988281 28.613281 C 121.070312 27.160156 119.707031 25.089844 119.125 22.75 C 118.722656 21.230469 118.59375 19.652344 118.738281 18.085938 C 118.921875 15.519531 120.046875 13.117188 121.898438 11.335938 C 123.546875 9.632812 125.714844 8.527344 128.058594 8.199219 C 128.839844 8.101562 129.625 8.050781 130.414062 8.035156 C 131.207031 8.011719 132 8.066406 132.78125 8.199219 C 135.164062 8.558594 137.375 9.652344 139.105469 11.332031 C 140.957031 13.113281 142.082031 15.519531 142.265625 18.085938 C 142.457031 19.648438 142.324219 21.234375 141.878906 22.746094 C 141.296875 25.085938 139.933594 27.160156 138.015625 28.613281 C 136.8125 29.628906 135.371094 30.320312 133.828125 30.621094 C 132.738281 30.847656 131.625 30.957031 130.511719 30.945312 C 129.390625 30.960938 128.269531 30.855469 127.175781 30.625 Z M 127.964844 15.03125 C 127.515625 15.648438 127.21875 16.367188 127.097656 17.121094 C 126.832031 18.554688 126.808594 20.019531 127.019531 21.460938 C 127.144531 22.179688 127.355469 22.882812 127.648438 23.550781 C 127.957031 24.269531 128.519531 24.839844 129.230469 25.160156 C 129.996094 25.503906 130.871094 25.53125 131.65625 25.226562 C 132.441406 24.925781 133.074219 24.324219 133.417969 23.550781 C 133.734375 22.894531 133.949219 22.1875 134.046875 21.460938 C 134.300781 20.023438 134.273438 18.550781 133.96875 17.121094 C 133.8125 16.375 133.515625 15.667969 133.101562 15.03125 C 132.539062 14.152344 131.570312 13.621094 130.53125 13.621094 C 129.492188 13.621094 128.523438 14.152344 127.964844 15.03125 Z M 102.292969 30.0625 C 100.957031 29.703125 99.734375 29.011719 98.738281 28.054688 C 97.972656 27.308594 97.378906 26.402344 96.996094 25.402344 C 96.71875 24.742188 96.585938 24.027344 96.613281 23.308594 L 96.613281 22.828125 L 104.351562 22.828125 C 104.363281 23.207031 104.417969 23.585938 104.511719 23.953125 C 104.589844 24.40625 104.84375 24.8125 105.222656 25.078125 C 105.480469 25.3125 105.773438 25.5 106.089844 25.640625 C 106.753906 25.957031 107.5 26.039062 108.214844 25.882812 C 108.757812 25.808594 109.257812 25.554688 109.636719 25.160156 C 110 24.773438 110.144531 24.230469 110.023438 23.714844 C 109.894531 23.234375 109.542969 22.84375 109.078125 22.667969 C 108.507812 22.496094 107.925781 22.363281 107.339844 22.269531 C 105.679688 22.027344 104.257812 21.707031 103.074219 21.464844 C 102.289062 21.296875 101.519531 21.054688 100.78125 20.742188 C 99.273438 20.167969 98.09375 18.960938 97.550781 17.4375 C 97.160156 16.613281 96.996094 15.695312 97.078125 14.785156 C 97.144531 14.242188 97.25 13.703125 97.394531 13.175781 C 97.757812 12.042969 98.445312 11.039062 99.371094 10.289062 C 100.460938 9.433594 101.730469 8.828125 103.082031 8.523438 C 104.058594 8.242188 105.066406 8.078125 106.082031 8.042969 C 107.851562 7.949219 109.628906 8.058594 111.375 8.363281 C 112.136719 8.492188 112.878906 8.710938 113.589844 9.007812 C 114.304688 9.273438 114.96875 9.652344 115.5625 10.132812 C 116.261719 10.695312 116.785156 11.449219 117.0625 12.304688 C 117.378906 13.121094 117.542969 13.996094 117.539062 14.875 L 110.035156 14.875 C 110.0625 14 109.515625 13.214844 108.691406 12.9375 C 107.851562 12.628906 106.9375 12.601562 106.082031 12.855469 C 105.59375 12.953125 105.179688 13.285156 104.976562 13.742188 L 104.976562 13.820312 C 104.871094 14.054688 104.859375 14.320312 104.949219 14.5625 C 105.035156 14.804688 105.21875 15 105.449219 15.105469 C 105.632812 15.171875 105.816406 15.222656 106.003906 15.265625 C 106.390625 15.347656 106.792969 15.429688 107.265625 15.507812 C 108.898438 15.734375 110.507812 16.082031 112.085938 16.554688 C 112.402344 16.636719 112.636719 16.714844 112.953125 16.796875 C 114.277344 17.148438 115.496094 17.8125 116.507812 18.734375 C 117.25 19.40625 117.796875 20.265625 118.089844 21.226562 C 118.9375 23.804688 118.121094 26.644531 116.035156 28.378906 C 115.566406 28.746094 115.0625 29.070312 114.535156 29.347656 C 113.363281 30.011719 112.078125 30.449219 110.746094 30.632812 C 109.742188 30.773438 108.734375 30.84375 107.722656 30.84375 C 105.886719 30.839844 104.054688 30.578125 102.292969 30.0625 Z M 0 30.300781 L 0 0 L 14.769531 0 C 15.320312 -0.0117188 15.875 0.0117188 16.421875 0.078125 C 20.246094 0.261719 23.640625 2.59375 25.191406 6.105469 C 26.050781 7.878906 26.378906 9.859375 26.136719 11.816406 C 25.730469 16.070312 22.632812 19.574219 18.472656 20.496094 C 17.152344 20.789062 15.800781 20.925781 14.445312 20.898438 L 9.003906 20.898438 L 9.003906 30.300781 Z M 9.003906 13.832031 L 12.558594 13.832031 C 13.191406 13.847656 13.824219 13.824219 14.453125 13.753906 C 15.355469 13.707031 16.191406 13.265625 16.746094 12.550781 C 17.039062 12.175781 17.230469 11.734375 17.296875 11.261719 C 17.375 10.863281 17.375 10.457031 17.296875 10.058594 C 17.179688 8.492188 15.863281 7.285156 14.296875 7.3125 L 9.003906 7.3125 Z M 167.625 30.230469 L 167.625 8.601562 L 175.527344 8.601562 L 175.527344 30.226562 Z M 157.4375 30.230469 L 157.4375 17.683594 C 157.417969 17.273438 157.363281 16.867188 157.269531 16.46875 C 157.074219 15.78125 156.582031 15.21875 155.925781 14.941406 C 154.433594 14.296875 152.691406 14.886719 151.898438 16.308594 C 151.585938 16.875 151.421875 17.507812 151.421875 18.15625 L 151.421875 30.226562 L 143.289062 30.226562 L 143.289062 8.601562 L 150.949219 8.601562 L 151.109375 10.925781 C 152.078125 10.011719 153.203125 9.277344 154.425781 8.753906 C 156.367188 7.796875 158.601562 7.625 160.667969 8.273438 C 162.957031 8.929688 164.746094 10.722656 165.40625 13.015625 C 165.71875 14.085938 165.875 15.195312 165.878906 16.308594 L 165.878906 30.226562 Z M 63.675781 30.230469 L 63.675781 17.683594 C 63.660156 17.277344 63.605469 16.875 63.515625 16.476562 C 63.324219 15.792969 62.828125 15.230469 62.171875 14.953125 C 60.679688 14.304688 58.941406 14.894531 58.144531 16.316406 C 57.832031 16.882812 57.667969 17.519531 57.671875 18.164062 L 57.671875 30.226562 L 49.445312 30.226562 L 49.445312 8.601562 L 57.109375 8.601562 L 57.265625 10.925781 C 58.238281 10.011719 59.359375 9.277344 60.585938 8.753906 C 62.527344 7.796875 64.761719 7.625 66.824219 8.273438 C 69.113281 8.929688 70.90625 10.722656 71.566406 13.015625 C 71.875 14.085938 72.035156 15.195312 72.039062 16.308594 L 72.039062 30.226562 Z M 167.617188 5.714844 L 167.617188 0 L 175.519531 0 L 175.519531 5.707031 Z M 167.617188 5.714844 "/>
</g>
</svg>
